<svg id="vector" viewBox="0 0 32 32" xmlns="http://www.w3.org/2000/svg">
    <path d="M 11.333 7.333 L 17.467 7.333 L 17.467 7.333 L 23.333 13.111 L 23.333 22 C 23.333 23.473 22.139 24.667 20.667 24.667 L 11.333 24.667 C 9.861 24.667 8.667 23.473 8.667 22 L 8.667 10 C 8.667 8.527 9.861 7.333 11.333 7.333 Z"
            fill-rule="evenodd"
            fill="#ffffff"
            id="path" stroke="#db5b5b" stroke-linecap="round" stroke-linejoin="round"
            stroke-width="1.2" />
    <path d="M 18.887 19.306 C 18.287 19.262 17.71 19.039 17.243 18.638 C 16.332 18.838 15.466 19.128 14.599 19.484 C 13.911 20.71 13.266 21.333 12.711 21.333 C 12.6 21.333 12.467 21.311 12.378 21.244 C 12.133 21.133 12 20.888 12 20.643 C 12 20.442 12.044 19.885 14.155 18.972 C 14.644 18.081 15.021 17.168 15.332 16.209 C 15.066 15.675 14.488 14.361 14.888 13.692 C 15.021 13.447 15.288 13.313 15.577 13.336 C 15.799 13.336 16.021 13.447 16.155 13.625 C 16.443 14.026 16.421 14.873 16.044 16.12 C 16.399 16.789 16.866 17.39 17.421 17.903 C 17.887 17.814 18.354 17.747 18.821 17.747 C 19.865 17.769 20.02 18.259 19.998 18.549 C 19.998 19.306 19.265 19.306 18.887 19.306 L 18.887 19.306 Z M 12.666 20.687 L 12.733 20.665 C 13.044 20.554 13.289 20.331 13.466 20.041 C 13.133 20.175 12.867 20.398 12.666 20.687 Z M 15.621 14.004 L 15.555 14.004 C 15.533 14.004 15.488 14.004 15.466 14.026 C 15.377 14.405 15.444 14.806 15.599 15.162 C 15.732 14.784 15.732 14.383 15.621 14.004 L 15.621 14.004 Z M 15.777 17.234 L 15.755 17.279 L 15.732 17.257 C 15.533 17.769 15.31 18.281 15.066 18.771 L 15.11 18.749 L 15.11 18.794 C 15.599 18.616 16.132 18.459 16.621 18.348 L 16.599 18.326 L 16.666 18.326 C 16.332 17.992 16.021 17.613 15.777 17.234 L 15.777 17.234 Z M 18.798 18.415 C 18.598 18.415 18.421 18.415 18.221 18.459 C 18.443 18.571 18.665 18.616 18.887 18.638 C 19.043 18.66 19.198 18.638 19.332 18.593 C 19.332 18.526 19.243 18.415 18.798 18.415 Z"
            fill="#db5b5b"
            id="path_1" stroke-width="1" />
    <path d="M 17.333 7.333 L 22.667 12.667 L 20.242 12.667 C 18.636 12.667 17.333 11.364 17.333 9.758 L 17.333 7.333 L 17.333 7.333 Z"
            fill="#db5b5b"
            fill-rule="evenodd" id="path_2" stroke-width="1" />
</svg>
